<svg xmlns="http://www.w3.org/2000/svg" width="1200" height="630" viewBox="0 0 1200 630" role="img" aria-labelledby="title desc">
  <title id="title">AcadHub social preview</title>
  <desc id="desc">AcadHub academic dashboard preview image.</desc>
  <defs>
    <linearGradient id="bg" x1="0" y1="0" x2="1" y2="1">
      <stop offset="0%" stop-color="#07111f"/>
      <stop offset="50%" stop-color="#10294d"/>
      <stop offset="100%" stop-color="#0a6d77"/>
    </linearGradient>
    <linearGradient id="card" x1="0" y1="0" x2="1" y2="1">
      <stop offset="0%" stop-color="rgba(255,255,255,0.18)"/>
      <stop offset="100%" stop-color="rgba(255,255,255,0.04)"/>
    </linearGradient>
  </defs>
  <rect width="1200" height="630" fill="url(#bg)"/>
  <circle cx="170" cy="110" r="140" fill="rgba(255,255,255,0.07)"/>
  <circle cx="1030" cy="520" r="180" fill="rgba(255,255,255,0.06)"/>
  <rect x="80" y="88" rx="28" ry="28" width="1040" height="454" fill="rgba(4,11,20,0.38)" stroke="rgba(255,255,255,0.1)"/>
  <rect x="128" y="150" rx="20" ry="20" width="230" height="116" fill="url(#card)" stroke="rgba(255,255,255,0.08)"/>
  <rect x="385" y="150" rx="20" ry="20" width="230" height="116" fill="url(#card)" stroke="rgba(255,255,255,0.08)"/>
  <rect x="642" y="150" rx="20" ry="20" width="230" height="116" fill="url(#card)" stroke="rgba(255,255,255,0.08)"/>
  <rect x="899" y="150" rx="20" ry="20" width="173" height="116" fill="url(#card)" stroke="rgba(255,255,255,0.08)"/>
  <rect x="128" y="300" rx="24" ry="24" width="420" height="180" fill="rgba(255,255,255,0.08)" stroke="rgba(255,255,255,0.08)"/>
  <rect x="575" y="300" rx="24" ry="24" width="497" height="180" fill="rgba(255,255,255,0.08)" stroke="rgba(255,255,255,0.08)"/>
  <path d="M164 410 C210 372, 250 395, 304 348 C352 307, 413 316, 512 356" fill="none" stroke="#5eead4" stroke-width="10" stroke-linecap="round"/>
  <path d="M164 438 C220 451, 271 426, 325 396 C390 361, 446 383, 512 334" fill="none" stroke="#93c5fd" stroke-width="10" stroke-linecap="round"/>
  <circle cx="745" cy="390" r="66" fill="none" stroke="rgba(147,197,253,0.4)" stroke-width="22"/>
  <path d="M745 324 A66 66 0 1 1 698 436" fill="none" stroke="#5eead4" stroke-width="22" stroke-linecap="round"/>
  <text x="128" y="112" fill="#dbeafe" font-size="30" font-family="Georgia, 'Times New Roman', serif" opacity="0.88">AcadHub</text>
  <text x="128" y="580" fill="#ffffff" font-size="68" font-family="Georgia, 'Times New Roman', serif" font-weight="700">Student Center for IPU</text>
  <text x="128" y="613" fill="rgba(255,255,255,0.74)" font-size="28" font-family="'Trebuchet MS', Verdana, sans-serif">Attendance, results, timetable, skills, and academic analytics in one dashboard.</text>
</svg>
